<?xml version="1.0" encoding="utf-8"?>
<svg xmlns="http://www.w3.org/2000/svg" style="margin: auto; background: rgb(241, 242, 243); display: block; shape-rendering: auto;" width="262" height="250" preserveAspectRatio="xMidYMid">
<style type="text/css">
  text {
    text-anchor: middle; font-size: 27px; opacity: 0;
  }
</style>
<g style="transform-origin: 131px 125px; transform: scale(0.3375);">
<g transform="translate(131,125)">
  <g transform="translate(0,0)"><g class="path" style="transform: matrix(1, 0, 0, 1, 0, 0); transform-origin: -303.98px -7.33239px; animation: 2.27273s linear -1.42857s infinite normal forwards running bounce-fed8b5a0-5791-47b6-89a3-abbd9c3b6282;"><path d="M37.93-13.75L37.93-13.75L37.93-13.75Q37.93-10.90 36.86-8.40L36.86-8.40L36.86-8.40Q35.78-5.90 33.91-4.02L33.91-4.02L33.91-4.02Q32.03-2.15 29.51-1.07L29.51-1.07L29.51-1.07Q26.99 0 24.14 0L24.14 0L6.41 0L6.41-56.02L24.14-56.02L24.14-56.02Q26.99-56.02 29.51-54.94L29.51-54.94L29.51-54.94Q32.03-53.87 33.91-51.99L33.91-51.99L33.91-51.99Q35.78-50.12 36.86-47.60L36.86-47.60L36.86-47.60Q37.93-45.08 37.93-42.23L37.93-42.23L37.93-41.68L37.93-41.68Q37.93-39.69 37.40-37.87L37.40-37.87L37.40-37.87Q36.88-36.05 35.90-34.49L35.90-34.49L35.90-34.49Q34.92-32.93 33.59-31.66L33.59-31.66L33.59-31.66Q32.27-30.39 30.63-29.53L30.63-29.53L30.63-29.53Q32.27-28.67 33.59-27.40L33.59-27.40L33.59-27.40Q34.92-26.13 35.90-24.55L35.90-24.55L35.90-24.55Q36.88-22.97 37.40-21.15L37.40-21.15L37.40-21.15Q37.93-19.34 37.93-17.34L37.93-17.34L37.93-13.75zM32.89-13.75L32.89-18.16L32.89-18.16Q32.89-20.04 32.19-21.66L32.19-21.66L32.19-21.66Q31.48-23.28 30.25-24.49L30.25-24.49L30.25-24.49Q29.02-25.70 27.40-26.41L27.40-26.41L27.40-26.41Q25.78-27.11 23.91-27.11L23.91-27.11L11.45-27.11L11.45-4.80L23.91-4.80L23.91-4.80Q25.78-4.80 27.40-5.51L27.40-5.51L27.40-5.51Q29.02-6.21 30.25-7.42L30.25-7.42L30.25-7.42Q31.48-8.63 32.19-10.25L32.19-10.25L32.19-10.25Q32.89-11.88 32.89-13.75L32.89-13.75zM32.89-40.90L32.89-42.23L32.89-42.23Q32.89-44.10 32.19-45.72L32.19-45.72L32.19-45.72Q31.48-47.34 30.25-48.57L30.25-48.57L30.25-48.57Q29.02-49.80 27.40-50.51L27.40-50.51L27.40-50.51Q25.78-51.21 23.91-51.21L23.91-51.21L11.45-51.21L11.45-31.91L23.91-31.91L23.91-31.91Q25.78-31.91 27.40-32.62L27.40-32.62L27.40-32.62Q29.02-33.32 30.25-34.55L30.25-34.55L30.25-34.55Q31.48-35.78 32.19-37.40L32.19-37.40L32.19-37.40Q32.89-39.02 32.89-40.90L32.89-40.90" fill="#290908" stroke="none" stroke-width="none" transform="translate(-326.1499938964844,20.677610197521386)" style="fill: rgb(41, 9, 8);"></path></g><g class="path" style="transform: matrix(1, 0, 0, 1, 0, 0); transform-origin: -266.85px 0.67761px; animation: 2.27273s linear -1.35714s infinite normal forwards running bounce-fed8b5a0-5791-47b6-89a3-abbd9c3b6282;"><path d="M72.66-10.98L72.66-10.98L72.66-10.98Q72.66-8.55 71.74-6.41L71.74-6.41L71.74-6.41Q70.82-4.26 69.22-2.66L69.22-2.66L69.22-2.66Q67.62-1.05 65.47-0.14L65.47-0.14L65.47-0.14Q63.32 0.78 60.90 0.78L60.90 0.78L57.70 0.78L57.70 0.78Q55.27 0.78 53.13-0.14L53.13-0.14L53.13-0.14Q50.98-1.05 49.38-2.66L49.38-2.66L49.38-2.66Q47.77-4.26 46.86-6.41L46.86-6.41L46.86-6.41Q45.94-8.55 45.94-10.98L45.94-10.98L45.94-29.02L45.94-29.02Q45.94-31.45 46.86-33.59L46.86-33.59L46.86-33.59Q47.77-35.74 49.38-37.34L49.38-37.34L49.38-37.34Q50.98-38.95 53.13-39.86L53.13-39.86L53.13-39.86Q55.27-40.78 57.70-40.78L57.70-40.78L60.90-40.78L60.90-40.78Q63.32-40.78 65.47-39.86L65.47-39.86L65.47-39.86Q67.62-38.95 69.22-37.34L69.22-37.34L69.22-37.34Q70.82-35.74 71.74-33.59L71.74-33.59L71.74-33.59Q72.66-31.45 72.66-29.02L72.66-29.02L72.66-10.98zM67.85-10.70L67.85-29.30L67.85-29.30Q67.85-30.74 67.30-32.01L67.30-32.01L67.30-32.01Q66.76-33.28 65.82-34.22L65.82-34.22L65.82-34.22Q64.88-35.16 63.61-35.70L63.61-35.70L63.61-35.70Q62.34-36.25 60.90-36.25L60.90-36.25L57.70-36.25L57.70-36.25Q56.25-36.25 54.98-35.70L54.98-35.70L54.98-35.70Q53.71-35.16 52.77-34.22L52.77-34.22L52.77-34.22Q51.84-33.28 51.29-32.01L51.29-32.01L51.29-32.01Q50.74-30.74 50.74-29.30L50.74-29.30L50.74-10.70L50.74-10.70Q50.74-9.26 51.29-7.99L51.29-7.99L51.29-7.99Q51.84-6.72 52.77-5.78L52.77-5.78L52.77-5.78Q53.71-4.84 54.98-4.30L54.98-4.30L54.98-4.30Q56.25-3.75 57.70-3.75L57.70-3.75L60.90-3.75L60.90-3.75Q62.34-3.75 63.61-4.30L63.61-4.30L63.61-4.30Q64.88-4.84 65.82-5.78L65.82-5.78L65.82-5.78Q66.76-6.72 67.30-7.99L67.30-7.99L67.30-7.99Q67.85-9.26 67.85-10.70L67.85-10.70" fill="#290908" stroke="none" stroke-width="none" transform="translate(-326.1499938964844,20.677610197521386)" style="fill: rgb(73, 18, 18);"></path></g><g class="path" style="transform: matrix(1, 0, 0, 1, 0, 0); transform-origin: -230.525px 0.287611px; animation: 2.27273s linear -1.28571s infinite normal forwards running bounce-fed8b5a0-5791-47b6-89a3-abbd9c3b6282;"><path d="M108.98 0L104.18 0L104.18-29.30L104.18-29.30Q104.18-30.74 103.63-32.01L103.63-32.01L103.63-32.01Q103.09-33.28 102.15-34.22L102.15-34.22L102.15-34.22Q101.21-35.16 99.94-35.70L99.94-35.70L99.94-35.70Q98.67-36.25 97.23-36.25L97.23-36.25L94.02-36.25L94.02-36.25Q92.58-36.25 91.31-35.70L91.31-35.70L91.31-35.70Q90.04-35.16 89.10-34.22L89.10-34.22L89.10-34.22Q88.16-33.28 87.62-32.01L87.62-32.01L87.62-32.01Q87.07-30.74 87.07-29.30L87.07-29.30L87.07 0L82.27 0L82.27-40L83.87-40L86.48-35.94L86.48-35.94Q88.13-38.16 90.61-39.47L90.61-39.47L90.61-39.47Q93.09-40.78 96.02-40.78L96.02-40.78L97.23-40.78L97.23-40.78Q99.65-40.78 101.80-39.86L101.80-39.86L101.80-39.86Q103.95-38.95 105.55-37.34L105.55-37.34L105.55-37.34Q107.15-35.74 108.07-33.59L108.07-33.59L108.07-33.59Q108.98-31.45 108.98-29.02L108.98-29.02L108.98 0" fill="#290908" stroke="none" stroke-width="none" transform="translate(-326.1499938964844,20.677610197521386)" style="fill: rgb(131, 26, 25);"></path></g><g class="path" style="transform: matrix(1, 0, 0, 1, 0, 0); transform-origin: -203.555px -32.1374px; animation: 2.27273s linear -1.21429s infinite normal forwards running bounce-fed8b5a0-5791-47b6-89a3-abbd9c3b6282;"><path d="M125.39-49.61L119.80-49.61L119.80-56.02L125.39-56.02L125.39-49.61" fill="#290908" stroke="none" stroke-width="none" transform="translate(-326.1499938964844,20.677610197521386)" style="fill: rgb(194, 66, 41);"></path></g><g class="path" style="transform: matrix(1, 0, 0, 1, 0, 0); transform-origin: -207.03px 8.68761px; animation: 2.27273s linear -1.14286s infinite normal forwards running bounce-fed8b5a0-5791-47b6-89a3-abbd9c3b6282;"><path d="M125 4.26L125 4.26L125 4.26Q125 6.68 124.08 8.81L124.08 8.81L124.08 8.81Q123.16 10.94 121.56 12.54L121.56 12.54L121.56 12.54Q119.96 14.14 117.81 15.08L117.81 15.08L117.81 15.08Q115.66 16.02 113.24 16.02L113.24 16.02L113.24 11.45L113.24 11.45Q114.69 11.45 115.96 10.90L115.96 10.90L115.96 10.90Q117.23 10.35 118.16 9.41L118.16 9.41L118.16 9.41Q119.10 8.48 119.65 7.21L119.65 7.21L119.65 7.21Q120.20 5.94 120.20 4.49L120.20 4.49L120.20-40L125-40L125 4.26" fill="#290908" stroke="none" stroke-width="none" transform="translate(-326.1499938964844,20.677610197521386)" style="fill: rgb(221, 132, 55);"></path></g><g class="path" style="transform: matrix(1, 0, 0, 1, 0, 0); transform-origin: -176.58px 0.67761px; animation: 2.27273s linear -1.07143s infinite normal forwards running bounce-fed8b5a0-5791-47b6-89a3-abbd9c3b6282;"><path d="M162.93-10.98L162.93-10.98L162.93-10.98Q162.93-8.55 162.01-6.41L162.01-6.41L162.01-6.41Q161.09-4.26 159.49-2.66L159.49-2.66L159.49-2.66Q157.89-1.05 155.74-0.14L155.74-0.14L155.74-0.14Q153.59 0.78 151.17 0.78L151.17 0.78L147.97 0.78L147.97 0.78Q145.55 0.78 143.40-0.14L143.40-0.14L143.40-0.14Q141.25-1.05 139.65-2.66L139.65-2.66L139.65-2.66Q138.05-4.26 137.13-6.41L137.13-6.41L137.13-6.41Q136.21-8.55 136.21-10.98L136.21-10.98L136.21-29.02L136.21-29.02Q136.21-31.45 137.13-33.59L137.13-33.59L137.13-33.59Q138.05-35.74 139.65-37.34L139.65-37.34L139.65-37.34Q141.25-38.95 143.40-39.86L143.40-39.86L143.40-39.86Q145.55-40.78 147.97-40.78L147.97-40.78L151.17-40.78L151.17-40.78Q153.59-40.78 155.74-39.86L155.74-39.86L155.74-39.86Q157.89-38.95 159.49-37.34L159.49-37.34L159.49-37.34Q161.09-35.74 162.01-33.59L162.01-33.59L162.01-33.59Q162.93-31.45 162.93-29.02L162.93-29.02L162.93-10.98zM158.13-10.70L158.13-29.30L158.13-29.30Q158.13-30.74 157.58-32.01L157.58-32.01L157.58-32.01Q157.03-33.28 156.09-34.22L156.09-34.22L156.09-34.22Q155.16-35.16 153.89-35.70L153.89-35.70L153.89-35.70Q152.62-36.25 151.17-36.25L151.17-36.25L147.97-36.25L147.97-36.25Q146.52-36.25 145.25-35.70L145.25-35.70L145.25-35.70Q143.98-35.16 143.05-34.22L143.05-34.22L143.05-34.22Q142.11-33.28 141.56-32.01L141.56-32.01L141.56-32.01Q141.02-30.74 141.02-29.30L141.02-29.30L141.02-10.70L141.02-10.70Q141.02-9.26 141.56-7.99L141.56-7.99L141.56-7.99Q142.11-6.72 143.05-5.78L143.05-5.78L143.05-5.78Q143.98-4.84 145.25-4.30L145.25-4.30L145.25-4.30Q146.52-3.75 147.97-3.75L147.97-3.75L151.17-3.75L151.17-3.75Q152.62-3.75 153.89-4.30L153.89-4.30L153.89-4.30Q155.16-4.84 156.09-5.78L156.09-5.78L156.09-5.78Q157.03-6.72 157.58-7.99L157.58-7.99L157.58-7.99Q158.13-9.26 158.13-10.70L158.13-10.70" fill="#290908" stroke="none" stroke-width="none" transform="translate(-326.1499938964844,20.677610197521386)" style="fill: rgb(238, 180, 64);"></path></g><g class="path" style="transform: matrix(1, 0, 0, 1, 0, 0); transform-origin: -140.25px 1.06761px; animation: 2.27273s linear -1s infinite normal forwards running bounce-fed8b5a0-5791-47b6-89a3-abbd9c3b6282;"><path d="M199.26 0L197.66 0L195-4.06L195-4.06Q193.36-1.84 190.90-0.53L190.90-0.53L190.90-0.53Q188.44 0.78 185.51 0.78L185.51 0.78L184.30 0.78L184.30 0.78Q181.88 0.78 179.73-0.14L179.73-0.14L179.73-0.14Q177.58-1.05 175.98-2.66L175.98-2.66L175.98-2.66Q174.38-4.26 173.46-6.41L173.46-6.41L173.46-6.41Q172.54-8.55 172.54-10.98L172.54-10.98L172.54-40L177.34-40L177.34-10.70L177.34-10.70Q177.34-9.26 177.89-7.99L177.89-7.99L177.89-7.99Q178.44-6.72 179.38-5.78L179.38-5.78L179.38-5.78Q180.31-4.84 181.58-4.30L181.58-4.30L181.58-4.30Q182.85-3.75 184.30-3.75L184.30-3.75L187.50-3.75L187.50-3.75Q188.95-3.75 190.21-4.30L190.21-4.30L190.21-4.30Q191.48-4.84 192.42-5.78L192.42-5.78L192.42-5.78Q193.36-6.72 193.91-7.99L193.91-7.99L193.91-7.99Q194.45-9.26 194.45-10.70L194.45-10.70L194.45-40L199.26-40L199.26 0" fill="#290908" stroke="none" stroke-width="none" transform="translate(-326.1499938964844,20.677610197521386)" style="fill: rgb(216, 206, 167);"></path></g><g class="path" style="transform: matrix(1, 0, 0, 1, 0, 0); transform-origin: -109px 0.287611px; animation: 2.27273s linear -0.928571s infinite normal forwards running bounce-fed8b5a0-5791-47b6-89a3-abbd9c3b6282;"><path d="M225.43-35.43L220.63-35.43L220.63-35.43Q219.18-35.43 217.91-34.88L217.91-34.88L217.91-34.88Q216.64-34.34 215.70-33.40L215.70-33.40L215.70-33.40Q214.77-32.46 214.22-31.19L214.22-31.19L214.22-31.19Q213.67-29.92 213.67-28.48L213.67-28.48L213.67 0L208.87 0L208.87-40L210.47-40L213.09-35.94L213.09-35.94Q214.73-38.16 217.21-39.47L217.21-39.47L217.21-39.47Q219.69-40.78 222.62-40.78L222.62-40.78L225.43-40.78L225.43-35.43" fill="#290908" stroke="none" stroke-width="none" transform="translate(-326.1499938964844,20.677610197521386)" style="fill: rgb(41, 9, 8);"></path></g><g class="path" style="transform: matrix(1, 0, 0, 1, 0, 0); transform-origin: -95.33px 23.2726px; animation: 2.27273s linear -0.857143s infinite normal forwards running bounce-fed8b5a0-5791-47b6-89a3-abbd9c3b6282;"><path d="M233.83-6.02L229.84 11.21L227.81 11.21L227.81-6.02L233.83-6.02" fill="#290908" stroke="none" stroke-width="none" transform="translate(-326.1499938964844,20.677610197521386)" style="fill: rgb(73, 18, 18);"></path></g><g class="path" style="transform: matrix(1, 0, 0, 1, 0, 0); transform-origin: -40.015px 0.287611px; animation: 2.27273s linear -0.785714s infinite normal forwards running bounce-fed8b5a0-5791-47b6-89a3-abbd9c3b6282;"><path d="M309.65 0L304.84 0L304.84-29.30L304.84-29.30Q304.84-30.74 304.30-32.01L304.30-32.01L304.30-32.01Q303.75-33.28 302.81-34.22L302.81-34.22L302.81-34.22Q301.88-35.16 300.61-35.70L300.61-35.70L300.61-35.70Q299.34-36.25 297.89-36.25L297.89-36.25L295.51-36.25L295.51-36.25Q294.06-36.25 292.79-35.70L292.79-35.70L292.79-35.70Q291.52-35.16 290.57-34.22L290.57-34.22L290.57-34.22Q289.61-33.28 289.06-32.01L289.06-32.01L289.06-32.01Q288.52-30.74 288.52-29.30L288.52-29.30L288.52 0L283.75 0L283.75-29.30L283.75-29.30Q283.75-30.74 283.20-32.01L283.20-32.01L283.20-32.01Q282.66-33.28 281.70-34.22L281.70-34.22L281.70-34.22Q280.74-35.16 279.47-35.70L279.47-35.70L279.47-35.70Q278.20-36.25 276.76-36.25L276.76-36.25L274.38-36.25L274.38-36.25Q272.93-36.25 271.66-35.70L271.66-35.70L271.66-35.70Q270.39-35.16 269.45-34.22L269.45-34.22L269.45-34.22Q268.52-33.28 267.97-32.01L267.97-32.01L267.97-32.01Q267.42-30.74 267.42-29.30L267.42-29.30L267.42 0L262.62 0L262.62-40L264.22-40L266.84-35.94L266.84-35.94Q268.48-38.16 270.96-39.47L270.96-39.47L270.96-39.47Q273.44-40.78 276.37-40.78L276.37-40.78L276.76-40.78L276.76-40.78Q280.16-40.78 282.89-39.10L282.89-39.10L282.89-39.10Q285.63-37.42 287.11-34.65L287.11-34.65L287.11-34.65Q287.85-36.02 288.95-37.15L288.95-37.15L288.95-37.15Q290.04-38.28 291.37-39.08L291.37-39.08L291.37-39.08Q292.70-39.88 294.26-40.33L294.26-40.33L294.26-40.33Q295.82-40.78 297.50-40.78L297.50-40.78L297.89-40.78L297.89-40.78Q300.31-40.78 302.46-39.86L302.46-39.86L302.46-39.86Q304.61-38.95 306.21-37.34L306.21-37.34L306.21-37.34Q307.81-35.74 308.73-33.59L308.73-33.59L308.73-33.59Q309.65-31.45 309.65-29.02L309.65-29.02L309.65 0" fill="#290908" stroke="none" stroke-width="none" transform="translate(-326.1499938964844,20.677610197521386)" style="fill: rgb(131, 26, 25);"></path></g><g class="path" style="transform: matrix(1, 0, 0, 1, 0, 0); transform-origin: 6.47002px 0.67761px; animation: 2.27273s linear -0.714286s infinite normal forwards running bounce-fed8b5a0-5791-47b6-89a3-abbd9c3b6282;"><path d="M345.98-10.98L345.98-10.98L345.98-10.98Q345.98-8.55 345.06-6.41L345.06-6.41L345.06-6.41Q344.14-4.26 342.54-2.66L342.54-2.66L342.54-2.66Q340.94-1.05 338.79-0.14L338.79-0.14L338.79-0.14Q336.64 0.78 334.22 0.78L334.22 0.78L331.02 0.78L331.02 0.78Q328.59 0.78 326.45-0.14L326.45-0.14L326.45-0.14Q324.30-1.05 322.70-2.66L322.70-2.66L322.70-2.66Q321.09-4.26 320.18-6.41L320.18-6.41L320.18-6.41Q319.26-8.55 319.26-10.98L319.26-10.98L319.26-29.02L319.26-29.02Q319.26-31.45 320.18-33.59L320.18-33.59L320.18-33.59Q321.09-35.74 322.70-37.34L322.70-37.34L322.70-37.34Q324.30-38.95 326.45-39.86L326.45-39.86L326.45-39.86Q328.59-40.78 331.02-40.78L331.02-40.78L334.22-40.78L334.22-40.78Q336.64-40.78 338.79-39.86L338.79-39.86L338.79-39.86Q340.94-38.95 342.54-37.34L342.54-37.34L342.54-37.34Q344.14-35.74 345.06-33.59L345.06-33.59L345.06-33.59Q345.98-31.45 345.98-29.02L345.98-29.02L345.98-19.61L324.06-19.61L324.06-10.70L324.06-10.70Q324.06-9.26 324.61-7.99L324.61-7.99L324.61-7.99Q325.16-6.72 326.09-5.78L326.09-5.78L326.09-5.78Q327.03-4.84 328.30-4.30L328.30-4.30L328.30-4.30Q329.57-3.75 331.02-3.75L331.02-3.75L334.22-3.75L334.22-3.75Q335.66-3.75 336.93-4.30L336.93-4.30L336.93-4.30Q338.20-4.84 339.14-5.78L339.14-5.78L339.14-5.78Q340.08-6.72 340.63-7.99L340.63-7.99L340.63-7.99Q341.17-9.26 341.17-10.70L341.17-10.70L341.17-13.36L345.98-12.58L345.98-10.98zM341.17-23.36L341.17-29.30L341.17-29.30Q341.17-30.74 340.63-32.01L340.63-32.01L340.63-32.01Q340.08-33.28 339.14-34.22L339.14-34.22L339.14-34.22Q338.20-35.16 336.93-35.70L336.93-35.70L336.93-35.70Q335.66-36.25 334.22-36.25L334.22-36.25L331.02-36.25L331.02-36.25Q329.57-36.25 328.30-35.70L328.30-35.70L328.30-35.70Q327.03-35.16 326.09-34.22L326.09-34.22L326.09-34.22Q325.16-33.28 324.61-32.01L324.61-32.01L324.61-32.01Q324.06-30.74 324.06-29.30L324.06-29.30L324.06-23.36L341.17-23.36" fill="#290908" stroke="none" stroke-width="none" transform="translate(-326.1499938964844,20.677610197521386)" style="fill: rgb(194, 66, 41);"></path></g><g class="path" style="transform: matrix(1, 0, 0, 1, 0, 0); transform-origin: 42.795px 0.67761px; animation: 2.27273s linear -0.642857s infinite normal forwards running bounce-fed8b5a0-5791-47b6-89a3-abbd9c3b6282;"><path d="M382.30-10.98L382.30-10.98L382.30-10.98Q382.30-8.55 381.39-6.41L381.39-6.41L381.39-6.41Q380.47-4.26 378.87-2.66L378.87-2.66L378.87-2.66Q377.27-1.05 375.12-0.14L375.12-0.14L375.12-0.14Q372.97 0.78 370.55 0.78L370.55 0.78L367.34 0.78L367.34 0.78Q364.92 0.78 362.77-0.14L362.77-0.14L362.77-0.14Q360.63-1.05 359.02-2.66L359.02-2.66L359.02-2.66Q357.42-4.26 356.50-6.41L356.50-6.41L356.50-6.41Q355.59-8.55 355.59-10.98L355.59-10.98L355.59-29.02L355.59-29.02Q355.59-31.45 356.50-33.59L356.50-33.59L356.50-33.59Q357.42-35.74 359.02-37.34L359.02-37.34L359.02-37.34Q360.63-38.95 362.77-39.86L362.77-39.86L362.77-39.86Q364.92-40.78 367.34-40.78L367.34-40.78L370.55-40.78L370.55-40.78Q372.97-40.78 375.12-39.86L375.12-39.86L375.12-39.86Q377.27-38.95 378.87-37.34L378.87-37.34L378.87-37.34Q380.47-35.74 381.39-33.59L381.39-33.59L381.39-33.59Q382.30-31.45 382.30-29.02L382.30-29.02L382.30-19.61L360.39-19.61L360.39-10.70L360.39-10.70Q360.39-9.26 360.94-7.99L360.94-7.99L360.94-7.99Q361.48-6.72 362.42-5.78L362.42-5.78L362.42-5.78Q363.36-4.84 364.63-4.30L364.63-4.30L364.63-4.30Q365.90-3.75 367.34-3.75L367.34-3.75L370.55-3.75L370.55-3.75Q371.99-3.75 373.26-4.30L373.26-4.30L373.26-4.30Q374.53-4.84 375.47-5.78L375.47-5.78L375.47-5.78Q376.41-6.72 376.95-7.99L376.95-7.99L376.95-7.99Q377.50-9.26 377.50-10.70L377.50-10.70L377.50-13.36L382.30-12.58L382.30-10.98zM377.50-23.36L377.50-29.30L377.50-29.30Q377.50-30.74 376.95-32.01L376.95-32.01L376.95-32.01Q376.41-33.28 375.47-34.22L375.47-34.22L375.47-34.22Q374.53-35.16 373.26-35.70L373.26-35.70L373.26-35.70Q371.99-36.25 370.55-36.25L370.55-36.25L367.34-36.25L367.34-36.25Q365.90-36.25 364.63-35.70L364.63-35.70L364.63-35.70Q363.36-35.16 362.42-34.22L362.42-34.22L362.42-34.22Q361.48-33.28 360.94-32.01L360.94-32.01L360.94-32.01Q360.39-30.74 360.39-29.30L360.39-29.30L360.39-23.36L377.50-23.36" fill="#290908" stroke="none" stroke-width="none" transform="translate(-326.1499938964844,20.677610197521386)" style="fill: rgb(221, 132, 55);"></path></g><g class="path" style="transform: matrix(1, 0, 0, 1, 0, 0); transform-origin: 73.635px -4.51739px; animation: 2.27273s linear -0.571429s infinite normal forwards running bounce-fed8b5a0-5791-47b6-89a3-abbd9c3b6282;"><path d="M410.86 0L406.48 0L406.48 0Q404.30 0 402.36-0.82L402.36-0.82L402.36-0.82Q400.43-1.64 399.00-3.09L399.00-3.09L399.00-3.09Q397.58-4.53 396.74-6.45L396.74-6.45L396.74-6.45Q395.90-8.36 395.90-10.55L395.90-10.55L395.90-35.43L388.71-35.43L388.71-40L395.90-40L395.90-49.61L400.70-50.39L400.70-40L410.86-40L410.86-35.43L400.70-35.43L400.70-10.31L400.70-10.31Q400.70-9.10 401.15-8.07L401.15-8.07L401.15-8.07Q401.60-7.03 402.38-6.25L402.38-6.25L402.38-6.25Q403.16-5.47 404.22-5.02L404.22-5.02L404.22-5.02Q405.27-4.57 406.48-4.57L406.48-4.57L410.86-4.57L410.86 0" fill="#290908" stroke="none" stroke-width="none" transform="translate(-326.1499938964844,20.677610197521386)" style="fill: rgb(238, 180, 64);"></path></g><g class="path" style="transform: matrix(1, 0, 0, 1, 0, 0); transform-origin: 129.3px -7.33239px; animation: 2.27273s linear -0.5s infinite normal forwards running bounce-fed8b5a0-5791-47b6-89a3-abbd9c3b6282;"><path d="M471.21 0L468.55 0L445.20-40.78L444.73-43.20L444.73 0L439.69 0L439.69-56.02L442.30-56.02L465.66-15.20L466.17-12.81L466.17-56.02L471.21-56.02L471.21 0" fill="#290908" stroke="none" stroke-width="none" transform="translate(-326.1499938964844,20.677610197521386)" style="fill: rgb(216, 206, 167);"></path></g><g class="path" style="transform: matrix(1, 0, 0, 1, 0, 0); transform-origin: 160.275px -32.1374px; animation: 2.27273s linear -0.428571s infinite normal forwards running bounce-fed8b5a0-5791-47b6-89a3-abbd9c3b6282;"><path d="M489.22-49.61L483.63-49.61L483.63-56.02L489.22-56.02L489.22-49.61" fill="#290908" stroke="none" stroke-width="none" transform="translate(-326.1499938964844,20.677610197521386)" style="fill: rgb(41, 9, 8);"></path></g><g class="path" style="transform: matrix(1, 0, 0, 1, 0, 0); transform-origin: 156.8px 8.68761px; animation: 2.27273s linear -0.357143s infinite normal forwards running bounce-fed8b5a0-5791-47b6-89a3-abbd9c3b6282;"><path d="M488.83 4.26L488.83 4.26L488.83 4.26Q488.83 6.68 487.91 8.81L487.91 8.81L487.91 8.81Q486.99 10.94 485.39 12.54L485.39 12.54L485.39 12.54Q483.79 14.14 481.64 15.08L481.64 15.08L481.64 15.08Q479.49 16.02 477.07 16.02L477.07 16.02L477.07 11.45L477.07 11.45Q478.52 11.45 479.79 10.90L479.79 10.90L479.79 10.90Q481.05 10.35 481.99 9.41L481.99 9.41L481.99 9.41Q482.93 8.48 483.48 7.21L483.48 7.21L483.48 7.21Q484.02 5.94 484.02 4.49L484.02 4.49L484.02-40L488.83-40L488.83 4.26" fill="#290908" stroke="none" stroke-width="none" transform="translate(-326.1499938964844,20.677610197521386)" style="fill: rgb(73, 18, 18);"></path></g><g class="path" style="transform: matrix(1, 0, 0, 1, 0, 0); transform-origin: 187.25px 0.67761px; animation: 2.27273s linear -0.285714s infinite normal forwards running bounce-fed8b5a0-5791-47b6-89a3-abbd9c3b6282;"><path d="M526.76-10.98L526.76-10.98L526.76-10.98Q526.76-8.55 525.84-6.41L525.84-6.41L525.84-6.41Q524.92-4.26 523.32-2.66L523.32-2.66L523.32-2.66Q521.72-1.05 519.57-0.14L519.57-0.14L519.57-0.14Q517.42 0.78 515 0.78L515 0.78L511.80 0.78L511.80 0.78Q509.38 0.78 507.23-0.14L507.23-0.14L507.23-0.14Q505.08-1.05 503.48-2.66L503.48-2.66L503.48-2.66Q501.88-4.26 500.96-6.41L500.96-6.41L500.96-6.41Q500.04-8.55 500.04-10.98L500.04-10.98L500.04-29.02L500.04-29.02Q500.04-31.45 500.96-33.59L500.96-33.59L500.96-33.59Q501.88-35.74 503.48-37.34L503.48-37.34L503.48-37.34Q505.08-38.95 507.23-39.86L507.23-39.86L507.23-39.86Q509.38-40.78 511.80-40.78L511.80-40.78L515-40.78L515-40.78Q517.42-40.78 519.57-39.86L519.57-39.86L519.57-39.86Q521.72-38.95 523.32-37.34L523.32-37.34L523.32-37.34Q524.92-35.74 525.84-33.59L525.84-33.59L525.84-33.59Q526.76-31.45 526.76-29.02L526.76-29.02L526.76-10.98zM521.95-10.70L521.95-29.30L521.95-29.30Q521.95-30.74 521.41-32.01L521.41-32.01L521.41-32.01Q520.86-33.28 519.92-34.22L519.92-34.22L519.92-34.22Q518.98-35.16 517.71-35.70L517.71-35.70L517.71-35.70Q516.45-36.25 515-36.25L515-36.25L511.80-36.25L511.80-36.25Q510.35-36.25 509.08-35.70L509.08-35.70L509.08-35.70Q507.81-35.16 506.88-34.22L506.88-34.22L506.88-34.22Q505.94-33.28 505.39-32.01L505.39-32.01L505.39-32.01Q504.84-30.74 504.84-29.30L504.84-29.30L504.84-10.70L504.84-10.70Q504.84-9.26 505.39-7.99L505.39-7.99L505.39-7.99Q505.94-6.72 506.88-5.78L506.88-5.78L506.88-5.78Q507.81-4.84 509.08-4.30L509.08-4.30L509.08-4.30Q510.35-3.75 511.80-3.75L511.80-3.75L515-3.75L515-3.75Q516.45-3.75 517.71-4.30L517.71-4.30L517.71-4.30Q518.98-4.84 519.92-5.78L519.92-5.78L519.92-5.78Q520.86-6.72 521.41-7.99L521.41-7.99L521.41-7.99Q521.95-9.26 521.95-10.70L521.95-10.70" fill="#290908" stroke="none" stroke-width="none" transform="translate(-326.1499938964844,20.677610197521386)" style="fill: rgb(131, 26, 25);"></path></g><g class="path" style="transform: matrix(1, 0, 0, 1, 0, 0); transform-origin: 218.5px 0.287611px; animation: 2.27273s linear -0.214286s infinite normal forwards running bounce-fed8b5a0-5791-47b6-89a3-abbd9c3b6282;"><path d="M552.93-35.43L548.13-35.43L548.13-35.43Q546.68-35.43 545.41-34.88L545.41-34.88L545.41-34.88Q544.14-34.34 543.20-33.40L543.20-33.40L543.20-33.40Q542.27-32.46 541.72-31.19L541.72-31.19L541.72-31.19Q541.17-29.92 541.17-28.48L541.17-28.48L541.17 0L536.37 0L536.37-40L537.97-40L540.59-35.94L540.59-35.94Q542.23-38.16 544.71-39.47L544.71-39.47L544.71-39.47Q547.19-40.78 550.12-40.78L550.12-40.78L552.93-40.78L552.93-35.43" fill="#290908" stroke="none" stroke-width="none" transform="translate(-326.1499938964844,20.677610197521386)" style="fill: rgb(194, 66, 41);"></path></g><g class="path" style="transform: matrix(1, 0, 0, 1, 0, 0); transform-origin: 246.545px 0.67761px; animation: 2.27273s linear -0.142857s infinite normal forwards running bounce-fed8b5a0-5791-47b6-89a3-abbd9c3b6282;"><path d="M586.05-10.98L586.05-10.98L586.05-10.98Q586.05-8.55 585.14-6.41L585.14-6.41L585.14-6.41Q584.22-4.26 582.62-2.66L582.62-2.66L582.62-2.66Q581.02-1.05 578.87-0.14L578.87-0.14L578.87-0.14Q576.72 0.78 574.30 0.78L574.30 0.78L571.09 0.78L571.09 0.78Q568.67 0.78 566.52-0.14L566.52-0.14L566.52-0.14Q564.38-1.05 562.77-2.66L562.77-2.66L562.77-2.66Q561.17-4.26 560.25-6.41L560.25-6.41L560.25-6.41Q559.34-8.55 559.34-10.98L559.34-10.98L559.34-29.02L559.34-29.02Q559.34-31.45 560.25-33.59L560.25-33.59L560.25-33.59Q561.17-35.74 562.77-37.34L562.77-37.34L562.77-37.34Q564.38-38.95 566.52-39.86L566.52-39.86L566.52-39.86Q568.67-40.78 571.09-40.78L571.09-40.78L574.30-40.78L574.30-40.78Q576.72-40.78 578.87-39.86L578.87-39.86L578.87-39.86Q581.02-38.95 582.62-37.34L582.62-37.34L582.62-37.34Q584.22-35.74 585.14-33.59L585.14-33.59L585.14-33.59Q586.05-31.45 586.05-29.02L586.05-29.02L586.05-10.98zM581.25-10.70L581.25-29.30L581.25-29.30Q581.25-30.74 580.70-32.01L580.70-32.01L580.70-32.01Q580.16-33.28 579.22-34.22L579.22-34.22L579.22-34.22Q578.28-35.16 577.01-35.70L577.01-35.70L577.01-35.70Q575.74-36.25 574.30-36.25L574.30-36.25L571.09-36.25L571.09-36.25Q569.65-36.25 568.38-35.70L568.38-35.70L568.38-35.70Q567.11-35.16 566.17-34.22L566.17-34.22L566.17-34.22Q565.23-33.28 564.69-32.01L564.69-32.01L564.69-32.01Q564.14-30.74 564.14-29.30L564.14-29.30L564.14-10.70L564.14-10.70Q564.14-9.26 564.69-7.99L564.69-7.99L564.69-7.99Q565.23-6.72 566.17-5.78L566.17-5.78L566.17-5.78Q567.11-4.84 568.38-4.30L568.38-4.30L568.38-4.30Q569.65-3.75 571.09-3.75L571.09-3.75L574.30-3.75L574.30-3.75Q575.74-3.75 577.01-4.30L577.01-4.30L577.01-4.30Q578.28-4.84 579.22-5.78L579.22-5.78L579.22-5.78Q580.16-6.72 580.70-7.99L580.70-7.99L580.70-7.99Q581.25-9.26 581.25-10.70L581.25-10.70" fill="#290908" stroke="none" stroke-width="none" transform="translate(-326.1499938964844,20.677610197521386)" style="fill: rgb(221, 132, 55);"></path></g><g class="path" style="transform: matrix(1, 0, 0, 1, 0, 0); transform-origin: 283.26px 8.29761px; animation: 2.27273s linear -0.0714286s infinite normal forwards running bounce-fed8b5a0-5791-47b6-89a3-abbd9c3b6282;"><path d="M622.77 5.04L622.77 5.04L622.77 5.04Q622.77 7.46 621.86 9.49L621.86 9.49L621.86 9.49Q620.94 11.52 619.34 12.97L619.34 12.97L619.34 12.97Q617.73 14.41 615.59 15.21L615.59 15.21L615.59 15.21Q613.44 16.02 611.02 16.02L611.02 16.02L609.02 16.02L609.02 16.02Q606.60 16.02 604.45 15.21L604.45 15.21L604.45 15.21Q602.30 14.41 600.70 12.97L600.70 12.97L600.70 12.97Q599.10 11.52 598.18 9.49L598.18 9.49L598.18 9.49Q597.27 7.46 597.27 5.04L597.27 5.04L597.27 4.88L597.27 4.88Q597.27 2.54 598.13 0.59L598.13 0.59L598.13 0.59Q598.98-1.37 600.47-2.81L600.47-2.81L600.47-2.81Q598.59-3.95 597.48-5.88L597.48-5.88L597.48-5.88Q596.37-7.81 596.37-10.16L596.37-10.16L596.37-10.16Q596.37-12.27 597.27-14.08L597.27-14.08L597.27-14.08Q598.16-15.90 599.73-17.03L599.73-17.03L599.73-17.03Q597.85-18.67 596.76-20.98L596.76-20.98L596.76-20.98Q595.66-23.28 595.66-26.02L595.66-26.02L595.66-29.02L595.66-29.02Q595.66-31.45 596.58-33.59L596.58-33.59L596.58-33.59Q597.50-35.74 599.10-37.34L599.10-37.34L599.10-37.34Q600.70-38.95 602.85-39.86L602.85-39.86L602.85-39.86Q605-40.78 607.42-40.78L607.42-40.78L609.41-40.78L609.41-40.78Q612.34-40.78 614.82-39.47L614.82-39.47L614.82-39.47Q617.30-38.16 618.95-35.94L618.95-35.94L621.56-40L623.16-40L623.16-26.02L623.16-26.02Q623.16-23.59 622.25-21.45L622.25-21.45L622.25-21.45Q621.33-19.30 619.73-17.70L619.73-17.70L619.73-17.70Q618.13-16.09 615.98-15.18L615.98-15.18L615.98-15.18Q613.83-14.26 611.41-14.26L611.41-14.26L604.45-14.26L604.45-14.26Q603.63-14.26 602.89-13.93L602.89-13.93L602.89-13.93Q602.15-13.59 601.58-13.05L601.58-13.05L601.58-13.05Q601.02-12.50 600.70-11.74L600.70-11.74L600.70-11.74Q600.39-10.98 600.39-10.16L600.39-10.16L600.39-10.16Q600.39-9.34 600.70-8.59L600.70-8.59L600.70-8.59Q601.02-7.85 601.58-7.29L601.58-7.29L601.58-7.29Q602.15-6.72 602.89-6.41L602.89-6.41L602.89-6.41Q603.63-6.09 604.45-6.09L604.45-6.09L611.02-6.09L611.02-6.09Q613.44-6.09 615.59-5.29L615.59-5.29L615.59-5.29Q617.73-4.49 619.34-3.05L619.34-3.05L619.34-3.05Q620.94-1.60 621.86 0.43L621.86 0.43L621.86 0.43Q622.77 2.46 622.77 4.88L622.77 4.88L622.77 5.04zM618.40-25.74L618.40-29.30L618.40-29.30Q618.40-30.74 617.85-32.01L617.85-32.01L617.85-32.01Q617.30-33.28 616.35-34.22L616.35-34.22L616.35-34.22Q615.39-35.16 614.12-35.70L614.12-35.70L614.12-35.70Q612.85-36.25 611.41-36.25L611.41-36.25L607.42-36.25L607.42-36.25Q605.98-36.25 604.71-35.70L604.71-35.70L604.71-35.70Q603.44-35.16 602.50-34.22L602.50-34.22L602.50-34.22Q601.56-33.28 601.02-32.01L601.02-32.01L601.02-32.01Q600.47-30.74 600.47-29.30L600.47-29.30L600.47-25.74L600.47-25.74Q600.47-24.30 601.02-23.03L601.02-23.03L601.02-23.03Q601.56-21.76 602.50-20.82L602.50-20.82L602.50-20.82Q603.44-19.88 604.71-19.34L604.71-19.34L604.71-19.34Q605.98-18.79 607.42-18.79L607.42-18.79L611.41-18.79L611.41-18.79Q612.85-18.79 614.12-19.34L614.12-19.34L614.12-19.34Q615.39-19.88 616.35-20.82L616.35-20.82L616.35-20.82Q617.30-21.76 617.85-23.03L617.85-23.03L617.85-23.03Q618.40-24.30 618.40-25.74L618.40-25.74zM618.20 5.27L618.20 4.65L618.20 4.65Q618.20 3.20 617.66 2.05L617.66 2.05L617.66 2.05Q617.11 0.90 616.17 0.12L616.17 0.12L616.17 0.12Q615.23-0.66 613.96-1.09L613.96-1.09L613.96-1.09Q612.70-1.52 611.25-1.52L611.25-1.52L608.79-1.52L608.79-1.52Q607.34-1.52 606.07-1.09L606.07-1.09L606.07-1.09Q604.80-0.66 603.87 0.12L603.87 0.12L603.87 0.12Q602.93 0.90 602.38 2.05L602.38 2.05L602.38 2.05Q601.84 3.20 601.84 4.65L601.84 4.65L601.84 5.27L601.84 5.27Q601.84 6.72 602.38 7.85L602.38 7.85L602.38 7.85Q602.93 8.98 603.87 9.79L603.87 9.79L603.87 9.79Q604.80 10.59 606.07 11.02L606.07 11.02L606.07 11.02Q607.34 11.45 608.79 11.45L608.79 11.45L611.25 11.45L611.25 11.45Q612.70 11.45 613.96 11.02L613.96 11.02L613.96 11.02Q615.23 10.59 616.17 9.79L616.17 9.79L616.17 9.79Q617.11 8.98 617.66 7.85L617.66 7.85L617.66 7.85Q618.20 6.72 618.20 5.27L618.20 5.27" fill="#290908" stroke="none" stroke-width="none" transform="translate(-326.1499938964844,20.677610197521386)" style="fill: rgb(238, 180, 64);"></path></g><g class="path" style="transform: matrix(1, 0, 0, 1, 0, 0); transform-origin: 319.2px 0.67761px; animation: 2.27273s linear 0s infinite normal forwards running bounce-fed8b5a0-5791-47b6-89a3-abbd9c3b6282;"><path d="M658.71-10.98L658.71-10.98L658.71-10.98Q658.71-8.55 657.79-6.41L657.79-6.41L657.79-6.41Q656.88-4.26 655.27-2.66L655.27-2.66L655.27-2.66Q653.67-1.05 651.52-0.14L651.52-0.14L651.52-0.14Q649.38 0.78 646.95 0.78L646.95 0.78L643.75 0.78L643.75 0.78Q641.33 0.78 639.18-0.14L639.18-0.14L639.18-0.14Q637.03-1.05 635.43-2.66L635.43-2.66L635.43-2.66Q633.83-4.26 632.91-6.41L632.91-6.41L632.91-6.41Q631.99-8.55 631.99-10.98L631.99-10.98L631.99-29.02L631.99-29.02Q631.99-31.45 632.91-33.59L632.91-33.59L632.91-33.59Q633.83-35.74 635.43-37.34L635.43-37.34L635.43-37.34Q637.03-38.95 639.18-39.86L639.18-39.86L639.18-39.86Q641.33-40.78 643.75-40.78L643.75-40.78L646.95-40.78L646.95-40.78Q649.38-40.78 651.52-39.86L651.52-39.86L651.52-39.86Q653.67-38.95 655.27-37.34L655.27-37.34L655.27-37.34Q656.88-35.74 657.79-33.59L657.79-33.59L657.79-33.59Q658.71-31.45 658.71-29.02L658.71-29.02L658.71-19.61L636.80-19.61L636.80-10.70L636.80-10.70Q636.80-9.26 637.34-7.99L637.34-7.99L637.34-7.99Q637.89-6.72 638.83-5.78L638.83-5.78L638.83-5.78Q639.77-4.84 641.04-4.30L641.04-4.30L641.04-4.30Q642.30-3.75 643.75-3.75L643.75-3.75L646.95-3.75L646.95-3.75Q648.40-3.75 649.67-4.30L649.67-4.30L649.67-4.30Q650.94-4.84 651.88-5.78L651.88-5.78L651.88-5.78Q652.81-6.72 653.36-7.99L653.36-7.99L653.36-7.99Q653.91-9.26 653.91-10.70L653.91-10.70L653.91-13.36L658.71-12.58L658.71-10.98zM653.91-23.36L653.91-29.30L653.91-29.30Q653.91-30.74 653.36-32.01L653.36-32.01L653.36-32.01Q652.81-33.28 651.88-34.22L651.88-34.22L651.88-34.22Q650.94-35.16 649.67-35.70L649.67-35.70L649.67-35.70Q648.40-36.25 646.95-36.25L646.95-36.25L643.75-36.25L643.75-36.25Q642.30-36.25 641.04-35.70L641.04-35.70L641.04-35.70Q639.77-35.16 638.83-34.22L638.83-34.22L638.83-34.22Q637.89-33.28 637.34-32.01L637.34-32.01L637.34-32.01Q636.80-30.74 636.80-29.30L636.80-29.30L636.80-23.36L653.91-23.36" fill="#290908" stroke="none" stroke-width="none" transform="translate(-326.1499938964844,20.677610197521386)" style="fill: rgb(216, 206, 167);"></path></g></g>
</g>
</g>
<style id="bounce-fed8b5a0-5791-47b6-89a3-abbd9c3b6282" data-anikit="">@keyframes bounce-fed8b5a0-5791-47b6-89a3-abbd9c3b6282
{
  0% {
    animation-timing-function: cubic-bezier(0.1361,0.2514,0.2175,0.8786);
    transform: translate(0,0px) scaleY(1);
  }
  37% {
    animation-timing-function: cubic-bezier(0.7674,0.1844,0.8382,0.7157);
    transform: translate(0,-39.96px) scaleY(1);
  }
  72% {
    animation-timing-function: cubic-bezier(0.1118,0.2149,0.2172,0.941);
    transform: translate(0,0px) scaleY(1);
  }
  87% {
    animation-timing-function: cubic-bezier(0.7494,0.2259,0.8209,0.6963);
    transform: translate(0,19.900000000000002px) scaleY(0.602);
  }
  100% {
    transform: translate(0,0px) scaleY(1);
  }
}</style></svg>